<svg width="471" height="459" viewBox="0 0 471 459" fill="none" xmlns="http://www.w3.org/2000/svg">
<path fill-rule="evenodd" clip-rule="evenodd" d="M235.164 0C105.293 0 0 105.299 0 235.188C0 339.094 67.369 427.243 160.831 458.323C172.601 460.5 176.883 453.257 176.883 447.004C176.883 441.432 176.678 426.652 176.575 407.006C111.154 421.231 97.351 375.474 97.351 375.474C86.6534 348.308 71.2343 341.084 71.2343 341.084C49.8815 326.503 72.8564 326.787 72.8564 326.787C96.4585 328.457 108.881 351.016 108.881 351.016C129.854 386.956 163.93 376.554 177.323 370.572C179.452 355.345 185.542 345.004 192.254 339.112C140.038 333.179 85.1399 313.002 85.1399 222.887C85.1399 197.204 94.2997 176.207 109.339 159.763C106.933 153.842 98.8464 129.932 111.648 97.5379C111.648 97.5379 131.391 91.2183 176.328 121.665C195.076 116.424 215.198 113.807 235.201 113.729C255.172 113.813 275.301 116.424 294.073 121.665C338.98 91.2183 358.692 97.5379 358.692 97.5379C371.524 129.932 363.444 153.842 361.032 159.763C376.107 176.207 385.201 197.204 385.201 222.887C385.201 313.213 330.224 333.112 277.834 338.913C286.264 346.18 293.79 360.562 293.79 382.505C293.79 413.929 293.506 439.285 293.506 446.998C293.506 453.299 297.733 460.626 309.673 458.292C403.032 427.147 470.353 339.064 470.353 235.188C470.353 105.299 365.06 0 235.164 0Z" fill="#3579F6"/>
</svg>
